<svg width="447" height="434" viewBox="0 0 447 434" fill="none" xmlns="http://www.w3.org/2000/svg">
<path d="M187 216.5L182 220L171.5 193.5L158 230H166.5H167C173.812 230 181.833 226.167 185 224C208 207 215.5 211.333 225.5 211.5C233.5 212.3 236 204.667 236 200.5C236 199 236.833 191.667 237.5 188C240.3 173.2 255.167 167.833 262 167L279.5 166.5H296.5L297 156L328 175L296.5 195V185H271C263 185 258.773 187.543 258 194.5C257.5 199 254.833 211.333 253.5 215C251.047 221.746 242 227.667 237 229.5C233.678 230.718 223 231 217.5 231C211.773 231 207.5 231.6 195.5 240C192.39 242.177 180.5 249 173.5 249L151 249.5L143 271H120L161 163H183L195 194.5L200.5 209L196.5 211L193 213L187 216.5Z" fill="#E96616"/>
<path d="M211 236.5L192.5 247.5L201 270.5L224 270L211 236.5Z" fill="#FDFDFD"/>
<path d="M236 270.5V234.5C254.4 227.7 259.333 216.667 259.5 212H280V201.5L311.5 221.5L280 241.5V230.5H257.5L258 270.5H236Z" fill="#FDFDFD"/>
<path d="M222 433.5V338.5C126.8 336.5 98 257 95.5 217.5L0 217L40.5 230.5L42.5 244.5L44.5 247L68 253L70 258.5L74.5 272L83 289.5L70.5 309.5L76 317.5L85 328.5L97 341L110 352L123 361L144 348.5L148 350.5L155.5 354.5L165.5 358.5L174.5 362L184.5 365L189 384L190 388L191.5 389L195 390L201 391.5L207.5 392.5L222 433.5Z" fill="#E96616"/>
<path d="M71 200L85.5 197.5L96.3529 195.613C118.235 121.703 175.569 99.0751 201.5 97L203.5 82L206 67.5L208.5 52.5L211 40L190 44.5L184.5 68L176.5 70L171 72L156 78L147 82.5L144 84L132.5 77L123 71.5L112 79L100.5 88L92.5 96L84 105L77.5 113L73 119L70.5 123L83 143.5L77 155.5L73.5 164.5L71 171.5L69 178.5L56 182L48 184.5L43.5 186L40 205L57 202.5L71 200Z" fill="#E96616"/>
<path d="M222 4.64916e-06L222 95C317.2 97 349.5 177 348.5 217L446.5 216.5L404 201.5L401.5 189L400 186L388 182L376 179L374 175L369.5 161.5L365.5 152.5L361 144L374 123L368.5 115.5L359.5 104L347.5 91.5L334.5 80.5L322 71.5L300 84L296 82L288.5 78L278.5 74L269.5 70.5L260 68L255 49.5L254 45.5L252.5 44.5L249 43.5L243.5 42L236 39L222 4.64916e-06Z" fill="#FDFDFD"/>
<path d="M374 233L359.5 235.5L348.5 237.413L348 237.5C329 311 269.431 333.925 243.5 336L241.5 351L239 365.5L236.5 380.5L234 393L254 388.5L260 364.5L268.5 362.5L274 360.5L289 354.5L298 350L300.5 348.5L312.5 356L322 361.5L333 353.5L344.5 344L352.5 336.5L361 327L367 320L371.5 314L374.5 310L361.5 289L368 277.5L371.5 268.5L374 261.5L376.5 253.5L389 250.5L397 248.5L401 246L405 228L388 230.5L374 233Z" fill="#FDFDFD"/>
</svg>
